<svg id="visual" viewBox="0 0 900 600" width="900" height="600" xmlns="http://www.w3.org/2000/svg" xmlns:xlink="http://www.w3.org/1999/xlink" version="1.1"><rect width="900" height="600" fill="#000000"></rect><g><g transform="translate(558 35)"><path d="M95.4 -32C108.2 8.5 92.6 57.2 59.1 81.6C25.6 106 -25.8 106.1 -59.6 81.6C-93.4 57.2 -109.6 8.2 -96.7 -32.4C-83.8 -72.9 -41.9 -105 -0.3 -104.9C41.3 -104.8 82.6 -72.5 95.4 -32Z" fill="#0066FF"></path></g><g transform="translate(693 487)"><path d="M92.1 -30.9C103.8 6.1 87 51.3 54.1 75.5C21.1 99.7 -27.9 102.8 -61 79.7C-94.1 56.7 -111.2 7.5 -98.4 -31.1C-85.6 -69.6 -42.8 -97.5 -1.3 -97C40.2 -96.6 80.4 -67.9 92.1 -30.9Z" fill="#0066FF"></path></g><g transform="translate(125 523)"><path d="M53.3 -18C59.5 1.6 48.2 26.3 30.4 38.4C12.6 50.5 -11.8 50.2 -28.3 38.4C-44.8 26.5 -53.4 3.2 -47.3 -16.3C-41.3 -35.8 -20.7 -51.4 1.5 -51.9C23.6 -52.4 47.2 -37.7 53.3 -18Z" fill="#0066FF"></path></g></g></svg>